<?xml version="1.0" encoding="utf-8"?>
<!-- Svg Vector Icons : http://www.onlinewebfonts.com/icon -->
<!DOCTYPE svg PUBLIC "-//W3C//DTD SVG 1.1//EN" "http://www.w3.org/Graphics/SVG/1.1/DTD/svg11.dtd">
<svg version="1.1" xmlns="http://www.w3.org/2000/svg" xmlns:xlink="http://www.w3.org/1999/xlink" x="0px" y="0px" viewBox="0 0 1000 1000" enable-background="new 0 0 1000 1000" xml:space="preserve">
<metadata> Svg Vector Icons : http://www.onlinewebfonts.com/icon </metadata>
<g><g transform="translate(0.000000,511.000000) scale(0.100000,-0.100000)"><path d="M5629.2,4267.5c-78.9-407.4-134.7-749-124.9-758.9c19.7-23,292.4-85.4,302.2-72.3c23,32.9,299,1507.9,282.6,1517.8c-9.9,6.6-85.4,23-167.6,36.1l-147.8,19.7L5629.2,4267.5z"/><path d="M6598.3,3544.8c-118.3-207-216.9-384.4-216.9-390.9c0-39.4,272.7-154.4,299-128.1c29.6,29.6,423.8,722.8,423.8,745.8c0,19.7-226.7,151.1-262.8,151.1C6828.3,3922.6,6716.6,3751.7,6598.3,3544.8z"/><path d="M7866.4,3222.8l-630.8-634.1l124.8-121.5l124.8-121.6l637.4,640.6l637.4,640.6l-111.7,115c-62.4,62.4-118.3,115-131.4,115C8507,3856.9,8214.6,3571.1,7866.4,3222.8z"/><path d="M4886.7,2670.9c-128.1-75.6-1402.8-1363.4-1465.2-1481.7c-404.1-781.9,1130.1-2621.6,2260.3-2713.7c351.5-26.3,404.1,6.6,1182.7,788.5c453.4,456.7,703,732.6,719.5,791.7c42.7,177.4-13.1,427.1-164.3,729.4c-180.7,361.4-394.2,643.9-745.8,998.7c-535.5,535.5-1117,883.7-1511.2,910C5037.8,2703.7,4926.1,2693.9,4886.7,2670.9z M5570,2302.9c821.3-423.8,1701.8-1442.3,1754.4-2033.6c16.4-180.7,16.4-190.5-69-226.7c-249.7-115-936.3,266.1-1501.4,827.9c-551.9,555.2-936.3,1245.1-824.6,1488.2c32.9,75.6,59.1,85.4,200.4,85.4C5257.9,2444.2,5353.2,2414.6,5570,2302.9z"/><path d="M8286.9,2013.8c-190.5-108.4-358.1-210.3-371.2-223.4c-26.3-26.3,88.7-299,121.6-299c42.7,0,775.3,436.9,775.3,459.9c0,42.7-134.7,262.8-157.7,259.5C8641.7,2211,8477.5,2122.3,8286.9,2013.8z"/><path d="M9075.4,1071c-407.4-82.1-742.5-151.1-749-154.4c-13.2-9.8,49.3-282.5,72.3-302.2c9.8-9.9,351.5,46,758.9,124.8L9900,883.7l-19.7,147.8c-13.1,82.1-32.9,157.7-42.7,167.5C9824.5,1208.9,9482.8,1153.1,9075.4,1071z"/><path d="M2133.6-1130.2L960.8-2303v-151.2c0-256.2,187.3-584.8,538.8-936.3c351.5-351.5,680.1-538.8,936.3-538.8H2587l1182.7,1186c650.5,653.8,1166.3,1192.6,1146.6,1199.1c-161,62.4-614.3,413.9-883.7,686.6c-285.8,285.8-597.9,686.6-660.3,850.9c-9.8,29.6-29.6,52.6-42.7,52.6C3319.6,46,2780.8-483,2133.6-1130.2z M3424.7-1317.4c203.7-105.2,262.8-423.8,115-601.2c-167.6-200.4-433.7-216.8-611.1-42.7C2596.8-1626.2,3004.2-1100.6,3424.7-1317.4z"/><path d="M385.8-2877.9L100-3173.6l13.2-190.6c19.7-298.9,154.4-528.9,519.1-893.6c361.4-361.4,594.6-496.1,896.9-519.1l187.3-13.2l305.5,299c289.1,285.8,299,299,220.1,322c-46,13.2-200.4,82.1-345,154.4c-368,180.7-831.2,643.9-1028.3,1028.3c-75.6,144.6-138,289.1-138,315.4C730.8-2556,661.8-2598.7,385.8-2877.9z"/></g></g>
</svg>