<svg xmlns="http://www.w3.org/2000/svg" xmlns:xlink="http://www.w3.org/1999/xlink" width="125" zoomAndPan="magnify" viewBox="0 0 93.75 207.749994" height="277" preserveAspectRatio="xMidYMid meet" version="1.0"><defs><clipPath id="1eecf40ddc"><path d="M 72 0.152344 L 93.5 0.152344 L 93.5 1 L 72 1 Z M 72 0.152344 " clip-rule="nonzero"/></clipPath><clipPath id="175c88e678"><path d="M 0 0.152344 L 21 0.152344 L 21 1 L 0 1 Z M 0 0.152344 " clip-rule="nonzero"/></clipPath></defs><path fill="#f7911c" d="M 86.007812 11.597656 C 86.007812 13.242188 68.714844 14.574219 47.382812 14.574219 C 26.054688 14.574219 8.761719 13.242188 8.761719 11.597656 C 8.761719 9.953125 26.054688 3.003906 47.382812 3.003906 C 68.714844 3.003906 86.007812 9.953125 86.007812 11.597656 " fill-opacity="1" fill-rule="nonzero"/><path fill="#1d191e" d="M 32.328125 193.785156 L 32.328125 196.351562 C 32.328125 207.90625 39.425781 206.40625 39.425781 206.40625 L 58.6875 206.40625 C 58.6875 206.40625 65.78125 204.910156 65.78125 196.351562 L 65.78125 193.785156 L 32.328125 193.785156 " fill-opacity="1" fill-rule="nonzero"/><path fill="#9d1b21" d="M 69.691406 76.371094 L 27.21875 76.371094 C 27.21875 76.371094 11.570312 61.683594 11.570312 43.558594 C 11.570312 25.433594 11.570312 22.546875 11.570312 22.546875 L 85.339844 22.546875 C 85.339844 22.546875 85.339844 29.460938 85.339844 42.886719 C 85.339844 56.3125 69.691406 76.371094 69.691406 76.371094 " fill-opacity="1" fill-rule="nonzero"/><path fill="#c8242b" d="M 65.78125 197.476562 L 32.636719 197.476562 C 32.636719 197.476562 27.21875 192.34375 27.21875 181.703125 C 27.21875 163.578125 27.21875 76.371094 27.21875 76.371094 L 69.691406 76.371094 C 69.691406 76.371094 69.691406 168.277344 69.691406 181.703125 C 69.691406 190.886719 65.78125 197.476562 65.78125 197.476562 " fill-opacity="1" fill-rule="nonzero"/><path fill="#b42026" d="M 88.628906 45.753906 C 88.628906 25.570312 88.628906 11.605469 88.628906 11.605469 L 8.277344 11.605469 C 8.277344 11.605469 8.277344 24.992188 8.277344 45.753906 L 88.628906 45.753906 " fill-opacity="1" fill-rule="nonzero"/><path fill="#1d191e" d="M 62.597656 121.445312 C 62.597656 125.925781 58.203125 129.554688 52.789062 129.554688 C 47.371094 129.554688 42.980469 125.925781 42.980469 121.445312 L 42.980469 93.566406 C 42.980469 89.082031 47.371094 85.453125 52.789062 85.453125 C 58.203125 85.453125 62.597656 89.082031 62.597656 93.566406 L 62.597656 121.445312 " fill-opacity="1" fill-rule="nonzero"/><path fill="#29242c" d="M 59.425781 119.027344 C 59.425781 122.726562 56.453125 125.730469 52.789062 125.730469 C 49.125 125.730469 46.15625 122.726562 46.15625 119.027344 L 46.15625 95.984375 C 46.15625 92.28125 49.125 89.277344 52.789062 89.277344 C 56.453125 89.277344 59.425781 92.28125 59.425781 95.984375 L 59.425781 119.027344 " fill-opacity="1" fill-rule="nonzero"/><path fill="#544446" d="M 56.8125 117.269531 C 56.8125 120.410156 55.007812 122.953125 52.789062 122.953125 C 50.5625 122.953125 48.765625 120.410156 48.765625 117.269531 L 48.765625 97.738281 C 48.765625 94.597656 50.5625 92.050781 52.789062 92.050781 C 55.007812 92.050781 56.8125 94.597656 56.8125 97.738281 L 56.8125 117.269531 " fill-opacity="1" fill-rule="nonzero"/><path fill="#47393a" d="M 48.765625 107.710938 L 48.765625 117.269531 C 48.765625 120.410156 50.5625 122.953125 52.789062 122.953125 C 55.007812 122.953125 56.8125 120.410156 56.8125 117.269531 L 56.8125 107.710938 L 48.765625 107.710938 " fill-opacity="1" fill-rule="nonzero"/><path fill="#8c181c" d="M 14.929688 42.886719 L 14.929688 11.605469 L 12.84375 11.605469 L 12.84375 42.886719 Z M 14.929688 42.886719 " fill-opacity="1" fill-rule="nonzero"/><path fill="#8c181c" d="M 22.710938 42.886719 L 22.710938 11.605469 L 20.625 11.605469 L 20.625 42.886719 Z M 22.710938 42.886719 " fill-opacity="1" fill-rule="nonzero"/><path fill="#8c181c" d="M 30.488281 42.886719 L 30.488281 11.605469 L 28.40625 11.605469 L 28.40625 42.886719 Z M 30.488281 42.886719 " fill-opacity="1" fill-rule="nonzero"/><path fill="#8c181c" d="M 38.265625 42.886719 L 38.265625 11.605469 L 36.183594 11.605469 L 36.183594 42.886719 Z M 38.265625 42.886719 " fill-opacity="1" fill-rule="nonzero"/><path fill="#8c181c" d="M 46.050781 42.886719 L 46.050781 11.605469 L 43.964844 11.605469 L 43.964844 42.886719 Z M 46.050781 42.886719 " fill-opacity="1" fill-rule="nonzero"/><path fill="#8c181c" d="M 53.828125 42.886719 L 53.828125 11.605469 L 51.746094 11.605469 L 51.746094 42.886719 Z M 53.828125 42.886719 " fill-opacity="1" fill-rule="nonzero"/><path fill="#8c181c" d="M 61.609375 42.886719 L 61.609375 11.605469 L 59.527344 11.605469 L 59.527344 42.886719 Z M 61.609375 42.886719 " fill-opacity="1" fill-rule="nonzero"/><path fill="#8c181c" d="M 69.390625 42.886719 L 69.390625 11.605469 L 67.308594 11.605469 L 67.308594 42.886719 Z M 69.390625 42.886719 " fill-opacity="1" fill-rule="nonzero"/><path fill="#8c181c" d="M 77.171875 42.886719 L 77.171875 11.605469 L 75.089844 11.605469 L 75.089844 42.886719 Z M 77.171875 42.886719 " fill-opacity="1" fill-rule="nonzero"/><path fill="#8c181c" d="M 84.953125 42.886719 L 84.953125 11.605469 L 82.871094 11.605469 L 82.871094 42.886719 Z M 84.953125 42.886719 " fill-opacity="1" fill-rule="nonzero"/><g clip-path="url(#1eecf40ddc)"><path fill="#f7911c" d="M 74.335938 0.515625 C 73.859375 0.9375 73.121094 0.875 72.683594 0.375 C 72.242188 -0.121094 72.273438 -0.867188 72.75 -1.285156 L 91.398438 -17.773438 C 91.875 -18.191406 92.617188 -18.132812 93.058594 -17.632812 C 93.496094 -17.132812 93.46875 -16.390625 92.992188 -15.96875 L 74.335938 0.515625 " fill-opacity="1" fill-rule="nonzero"/></g><g clip-path="url(#175c88e678)"><path fill="#f7911c" d="M 19.027344 0.515625 C 19.507812 0.9375 20.246094 0.875 20.683594 0.375 C 21.125 -0.121094 21.09375 -0.867188 20.621094 -1.285156 L 1.964844 -17.773438 C 1.492188 -18.191406 0.746094 -18.132812 0.304688 -17.632812 C -0.132812 -17.132812 -0.101562 -16.390625 0.375 -15.96875 L 19.027344 0.515625 " fill-opacity="1" fill-rule="nonzero"/></g><path fill="#ffffff" d="M 32.316406 4.121094 C 22.589844 5.546875 14.90625 8.050781 11.195312 9.839844 L 9.488281 9.839844 C 12.238281 8.589844 16.929688 7.003906 22.828125 5.722656 C 25.722656 5.09375 28.910156 4.535156 32.316406 4.121094 " fill-opacity="1" fill-rule="nonzero"/><path fill="#f7911c" d="M 79.890625 9.839844 L 11.195312 9.839844 C 14.90625 8.050781 22.589844 5.546875 32.316406 4.121094 C 36.195312 3.644531 40.359375 3.355469 44.691406 3.355469 C 55.242188 3.355469 64.8125 5.078125 71.71875 7 C 75.167969 7.957031 77.957031 8.964844 79.84375 9.816406 C 79.859375 9.828125 79.875 9.835938 79.890625 9.839844 " fill-opacity="1" fill-rule="nonzero"/><path fill="#040606" d="M 83.925781 9.839844 L 83.574219 9.839844 C 78.09375 7.199219 63.957031 3.003906 47.382812 3.003906 C 42.039062 3.003906 36.945312 3.4375 32.316406 4.121094 C 28.910156 4.535156 25.722656 5.09375 22.828125 5.722656 C 16.929688 7.003906 12.238281 8.589844 9.488281 9.839844 L 5.585938 9.839844 C 5.539062 9.839844 5.492188 9.84375 5.449219 9.847656 C 5.464844 9.832031 5.480469 9.816406 5.492188 9.800781 C 5.714844 9.566406 5.960938 9.375 6.261719 9.171875 C 6.855469 8.769531 7.65625 8.347656 8.667969 7.886719 C 10.691406 6.976562 13.558594 5.941406 17.097656 4.957031 C 24.171875 2.992188 33.910156 1.238281 44.691406 1.238281 C 57.542969 1.238281 68.910156 3.726562 76.054688 6.105469 C 78.4375 6.898438 80.351562 7.679688 81.71875 8.367188 C 82.503906 8.765625 83.101562 9.125 83.558594 9.496094 C 83.691406 9.605469 83.8125 9.714844 83.925781 9.839844 " fill-opacity="1" fill-rule="nonzero"/><path fill="#040402" d="M 83.574219 9.839844 L 79.890625 9.839844 C 79.875 9.835938 79.859375 9.828125 79.84375 9.816406 C 77.957031 8.964844 75.167969 7.957031 71.71875 7 C 64.8125 5.078125 55.242188 3.355469 44.691406 3.355469 C 40.359375 3.355469 36.195312 3.644531 32.316406 4.121094 C 36.945312 3.4375 42.039062 3.003906 47.382812 3.003906 C 63.957031 3.003906 78.09375 7.199219 83.574219 9.839844 " fill-opacity="1" fill-rule="nonzero"/><path fill="#ffffff" d="M 34.425781 204.433594 C 33.640625 204.140625 32.792969 203.582031 32.058594 202.347656 C 31.484375 201.363281 30.992188 199.921875 30.789062 197.832031 L 32.371094 197.832031 C 32.5625 201.109375 33.394531 203.160156 34.425781 204.433594 " fill-opacity="1" fill-rule="nonzero"/><path fill="#1d191e" d="M 61.851562 197.832031 C 61.675781 198.8125 61.386719 199.644531 61.035156 200.359375 C 60.152344 202.144531 58.832031 203.21875 57.714844 203.855469 C 57.15625 204.175781 56.652344 204.382812 56.296875 204.507812 C 56.121094 204.570312 55.980469 204.613281 55.890625 204.636719 L 55.867188 204.640625 L 36.730469 204.640625 C 36.65625 204.640625 36.589844 204.648438 36.515625 204.664062 C 36.480469 204.671875 36.269531 204.707031 35.949219 204.707031 C 35.582031 204.707031 35.070312 204.660156 34.53125 204.472656 C 34.492188 204.460938 34.460938 204.449219 34.425781 204.433594 C 33.394531 203.160156 32.5625 201.109375 32.371094 197.832031 L 61.851562 197.832031 " fill-opacity="1" fill-rule="nonzero"/><path fill="#040606" d="M 57.269531 206.40625 C 56.660156 206.640625 56.253906 206.726562 56.210938 206.738281 C 56.136719 206.753906 56.070312 206.757812 55.996094 206.757812 L 36.824219 206.757812 C 36.660156 206.785156 36.355469 206.824219 35.949219 206.824219 C 35.128906 206.824219 33.867188 206.667969 32.589844 205.886719 C 31.308594 205.105469 30.085938 203.691406 29.359375 201.425781 C 28.953125 200.183594 28.6875 198.6875 28.601562 196.875 C 28.960938 197.296875 29.191406 197.515625 29.21875 197.539062 C 29.414062 197.726562 29.675781 197.832031 29.945312 197.832031 L 30.789062 197.832031 C 30.992188 199.921875 31.484375 201.363281 32.058594 202.347656 C 32.792969 203.582031 33.640625 204.140625 34.425781 204.433594 C 36.519531 207.019531 39.425781 206.40625 39.425781 206.40625 L 57.269531 206.40625 " fill-opacity="1" fill-rule="nonzero"/><path fill="#010101" d="M 64.039062 197.476562 C 63.859375 198.957031 63.460938 200.222656 62.929688 201.296875 C 62.1875 202.792969 61.195312 203.902344 60.207031 204.707031 C 59.113281 205.597656 58.03125 206.117188 57.269531 206.40625 L 39.425781 206.40625 C 39.425781 206.40625 36.519531 207.019531 34.425781 204.433594 C 34.460938 204.449219 34.492188 204.460938 34.53125 204.472656 C 35.070312 204.660156 35.582031 204.707031 35.949219 204.707031 C 36.269531 204.707031 36.480469 204.671875 36.515625 204.664062 C 36.589844 204.648438 36.65625 204.640625 36.730469 204.640625 L 55.867188 204.640625 L 55.890625 204.636719 C 55.980469 204.613281 56.121094 204.570312 56.296875 204.507812 C 56.652344 204.382812 57.15625 204.175781 57.714844 203.855469 C 58.832031 203.21875 60.152344 202.144531 61.035156 200.359375 C 61.386719 199.644531 61.675781 198.8125 61.851562 197.832031 L 63.089844 197.832031 C 63.394531 197.832031 63.683594 197.699219 63.878906 197.476562 L 64.039062 197.476562 " fill-opacity="1" fill-rule="nonzero"/><path fill="#040101" d="M 64.074219 197.183594 C 64.066406 197.28125 64.050781 197.382812 64.039062 197.476562 L 63.878906 197.476562 C 63.925781 197.429688 63.964844 197.371094 64 197.3125 L 63.089844 196.773438 L 64 197.3125 C 64.003906 197.304688 64.027344 197.261719 64.074219 197.183594 " fill-opacity="1" fill-rule="nonzero"/><path fill="#ffffff" d="M 25.503906 74.609375 L 24.953125 74.609375 C 23.964844 73.625 20.65625 70.199219 17.402344 65.195312 C 14.097656 60.125 10.867188 53.449219 10.101562 46.105469 L 11.667969 46.105469 C 12.722656 59.386719 21.6875 70.449219 25.503906 74.609375 " fill-opacity="1" fill-rule="nonzero"/><path fill="#9d1b20" d="M 81.183594 46.105469 C 80.777344 48.21875 80.089844 50.453125 79.214844 52.691406 C 77.058594 58.234375 73.789062 63.835938 71.0625 68.035156 C 69.699219 70.132812 68.472656 71.882812 67.585938 73.105469 C 67.144531 73.714844 66.785156 74.195312 66.539062 74.519531 C 66.519531 74.550781 66.496094 74.582031 66.472656 74.609375 L 25.503906 74.609375 C 21.6875 70.449219 12.722656 59.386719 11.667969 46.105469 L 81.183594 46.105469 " fill-opacity="1" fill-rule="nonzero"/><path fill="#030101" d="M 83.335938 46.105469 C 82.910156 48.511719 82.144531 50.992188 81.1875 53.460938 C 79.691406 57.300781 77.710938 61.113281 75.734375 64.492188 C 72.332031 70.308594 68.945312 74.859375 68.054688 76.023438 C 68.054688 75.789062 68.054688 75.667969 68.054688 75.667969 C 68.054688 75.386719 67.941406 75.113281 67.746094 74.917969 C 67.546875 74.722656 67.277344 74.609375 66.996094 74.609375 L 66.472656 74.609375 C 66.496094 74.582031 66.519531 74.550781 66.539062 74.519531 C 66.785156 74.195312 67.144531 73.714844 67.585938 73.105469 C 68.472656 71.882812 69.699219 70.132812 71.0625 68.035156 C 73.789062 63.835938 77.058594 58.234375 79.214844 52.691406 C 80.089844 50.453125 80.777344 48.21875 81.183594 46.105469 L 83.335938 46.105469 " fill-opacity="1" fill-rule="nonzero"/><path fill="#040606" d="M 24.953125 74.609375 L 24.523438 74.609375 C 24.246094 74.609375 23.972656 74.722656 23.773438 74.917969 C 23.578125 75.113281 23.46875 75.386719 23.46875 75.667969 C 23.46875 75.667969 23.46875 75.816406 23.46875 76.113281 C 22.429688 75.082031 19.128906 71.664062 15.816406 66.636719 C 12.308594 61.308594 8.765625 54.15625 7.976562 46.105469 L 10.101562 46.105469 C 10.867188 53.449219 14.097656 60.125 17.402344 65.195312 C 20.65625 70.199219 23.964844 73.625 24.953125 74.609375 " fill-opacity="1" fill-rule="nonzero"/><path fill="#ffffff" d="M 31.207031 195.714844 L 30.398438 195.714844 C 29.953125 195.214844 29.03125 194.070312 28.113281 192.269531 C 26.847656 189.785156 25.582031 186.058594 25.582031 180.996094 C 25.582031 164.046875 25.582031 86.691406 25.582031 76.726562 L 27.21875 76.726562 C 27.21875 82.757812 27.21875 164.25 27.21875 181.703125 C 27.21875 188.757812 29.601562 193.390625 31.207031 195.714844 " fill-opacity="1" fill-rule="nonzero"/><path fill="#c8242b" d="M 65.941406 181 C 65.941406 185.441406 64.992188 189.269531 64.046875 191.976562 C 63.570312 193.335938 63.101562 194.410156 62.75 195.140625 C 62.640625 195.367188 62.542969 195.554688 62.460938 195.714844 L 31.207031 195.714844 C 29.601562 193.390625 27.21875 188.757812 27.21875 181.703125 C 27.21875 164.25 27.21875 82.757812 27.21875 76.726562 L 65.941406 76.726562 C 65.941406 86.972656 65.941406 168.421875 65.941406 180.996094 C 65.941406 181 65.941406 181 65.941406 181 M 53.113281 129.554688 C 58.378906 129.410156 62.597656 125.835938 62.597656 121.445312 L 62.597656 93.566406 C 62.597656 90.785156 60.910156 88.332031 58.332031 86.871094 C 58.132812 86.671875 57.921875 86.488281 57.703125 86.308594 C 55.726562 84.667969 53.039062 83.6875 50.09375 83.6875 C 47.148438 83.6875 44.464844 84.667969 42.488281 86.308594 C 40.507812 87.933594 39.226562 90.261719 39.226562 92.855469 C 39.226562 92.855469 39.226562 92.859375 39.226562 92.859375 L 39.226562 120.742188 C 39.226562 123.335938 40.507812 125.664062 42.488281 127.289062 C 44.464844 128.925781 47.148438 129.910156 50.09375 129.910156 C 51.140625 129.910156 52.152344 129.785156 53.113281 129.554688 " fill-opacity="1" fill-rule="nonzero"/><path fill="#1d191e" d="M 62.597656 93.566406 L 62.597656 121.445312 C 62.597656 125.835938 58.378906 129.410156 53.113281 129.554688 C 54.855469 129.128906 56.425781 128.347656 57.703125 127.289062 C 59.675781 125.664062 60.960938 123.335938 60.960938 120.742188 L 59.902344 120.742188 L 60.960938 120.742188 L 60.960938 92.859375 C 60.960938 92.859375 60.960938 92.855469 60.960938 92.855469 C 60.960938 90.546875 59.945312 88.453125 58.332031 86.871094 C 60.910156 88.332031 62.597656 90.785156 62.597656 93.566406 " fill-opacity="1" fill-rule="nonzero"/><path fill="#040606" d="M 32.371094 197.832031 L 29.945312 197.832031 C 29.675781 197.832031 29.414062 197.726562 29.21875 197.539062 C 29.191406 197.515625 28.960938 197.296875 28.601562 196.875 C 28.042969 196.210938 27.167969 195.042969 26.296875 193.363281 C 24.871094 190.621094 23.46875 186.503906 23.46875 181 C 23.46875 181 23.46875 181 23.46875 180.996094 C 23.46875 171.933594 23.46875 145.601562 23.46875 121.535156 C 23.46875 99.480469 23.46875 79.332031 23.46875 76.113281 C 23.46875 75.816406 23.46875 75.667969 23.46875 75.667969 C 23.46875 75.386719 23.578125 75.113281 23.773438 74.917969 C 23.972656 74.722656 24.246094 74.609375 24.523438 74.609375 L 25.503906 74.609375 C 26.558594 75.75 27.21875 76.371094 27.21875 76.371094 C 27.21875 76.371094 27.21875 76.492188 27.21875 76.726562 L 25.582031 76.726562 C 25.582031 86.691406 25.582031 164.046875 25.582031 180.996094 C 25.582031 186.058594 26.847656 189.785156 28.113281 192.269531 C 29.03125 194.070312 29.953125 195.214844 30.398438 195.714844 L 31.207031 195.714844 C 31.675781 196.398438 32.082031 196.878906 32.339844 197.167969 C 32.347656 197.390625 32.355469 197.617188 32.371094 197.832031 " fill-opacity="1" fill-rule="nonzero"/><path fill="#010101" d="M 63.878906 197.476562 C 63.683594 197.699219 63.394531 197.832031 63.089844 197.832031 L 32.371094 197.832031 C 32.355469 197.617188 32.347656 197.390625 32.339844 197.167969 C 32.527344 197.375 32.636719 197.476562 32.636719 197.476562 L 63.878906 197.476562 " fill-opacity="1" fill-rule="nonzero"/><path fill="#030101" d="M 68.054688 75.667969 C 68.054688 75.667969 68.054688 75.789062 68.054688 76.023438 C 68.054688 76.121094 68.054688 76.238281 68.054688 76.371094 L 27.21875 76.371094 C 27.21875 76.371094 26.558594 75.75 25.503906 74.609375 L 66.996094 74.609375 C 67.277344 74.609375 67.546875 74.722656 67.746094 74.917969 C 67.941406 75.113281 68.054688 75.386719 68.054688 75.667969 " fill-opacity="1" fill-rule="nonzero"/><path fill="#040101" d="M 68.054688 76.371094 C 68.054688 84.902344 68.054688 168.261719 68.054688 180.996094 C 68.046875 189.785156 64.617188 196.207031 64.074219 197.183594 C 64.027344 197.261719 64.003906 197.304688 64 197.3125 L 63.089844 196.773438 L 63.089844 195.714844 L 63.089844 196.773438 L 64 197.3125 C 63.964844 197.371094 63.925781 197.429688 63.878906 197.476562 L 32.636719 197.476562 C 32.636719 197.476562 32.527344 197.375 32.339844 197.167969 C 32.082031 196.878906 31.675781 196.398438 31.207031 195.714844 L 62.460938 195.714844 C 62.542969 195.554688 62.640625 195.367188 62.75 195.140625 C 63.101562 194.410156 63.570312 193.335938 64.046875 191.976562 C 64.992188 189.269531 65.941406 185.441406 65.941406 181 C 65.941406 181 65.941406 181 65.941406 180.996094 C 65.941406 168.421875 65.941406 86.972656 65.941406 76.726562 L 27.21875 76.726562 C 27.21875 76.492188 27.21875 76.371094 27.21875 76.371094 L 68.054688 76.371094 " fill-opacity="1" fill-rule="nonzero"/><path fill="#ffffff" d="M 8.277344 11.957031 C 8.277344 14.128906 8.277344 26.15625 8.277344 43.988281 L 6.640625 43.988281 C 6.640625 34.085938 6.640625 25.929688 6.640625 20.1875 C 6.640625 16.199219 6.640625 13.378906 6.640625 11.957031 L 8.277344 11.957031 " fill-opacity="1" fill-rule="nonzero"/><path fill="#b42026" d="M 84.875 42.886719 C 84.875 43.253906 84.875 43.621094 84.875 43.988281 L 8.277344 43.988281 C 8.277344 26.15625 8.277344 14.128906 8.277344 11.957031 L 9.089844 11.957031 L 9.089844 42.179688 C 9.089844 42.460938 9.203125 42.734375 9.402344 42.929688 C 9.601562 43.128906 9.871094 43.238281 10.148438 43.238281 L 12.234375 43.238281 C 12.515625 43.238281 12.785156 43.128906 12.980469 42.929688 C 12.996094 42.914062 13.007812 42.902344 13.023438 42.886719 L 14.929688 42.886719 L 14.929688 11.957031 L 16.875 11.957031 L 16.875 42.179688 C 16.875 42.460938 16.988281 42.734375 17.183594 42.929688 C 17.378906 43.128906 17.652344 43.238281 17.929688 43.238281 L 20.011719 43.238281 C 20.292969 43.238281 20.566406 43.128906 20.761719 42.929688 C 20.777344 42.914062 20.789062 42.902344 20.804688 42.886719 L 22.710938 42.886719 L 22.710938 11.957031 L 24.652344 11.957031 L 24.652344 42.179688 C 24.652344 42.460938 24.765625 42.734375 24.964844 42.929688 C 25.160156 43.128906 25.433594 43.238281 25.710938 43.238281 L 27.796875 43.238281 C 28.074219 43.238281 28.347656 43.128906 28.542969 42.929688 C 28.558594 42.914062 28.570312 42.902344 28.582031 42.886719 L 30.488281 42.886719 L 30.488281 11.957031 L 32.433594 11.957031 L 32.433594 42.179688 C 32.433594 42.460938 32.546875 42.734375 32.742188 42.929688 C 32.941406 43.128906 33.214844 43.238281 33.492188 43.238281 L 35.578125 43.238281 C 35.851562 43.238281 36.128906 43.128906 36.324219 42.929688 C 36.335938 42.914062 36.351562 42.902344 36.363281 42.886719 L 38.265625 42.886719 L 38.265625 11.957031 L 40.214844 11.957031 L 40.214844 42.179688 C 40.214844 42.460938 40.328125 42.734375 40.527344 42.929688 C 40.722656 43.128906 40.992188 43.238281 41.273438 43.238281 L 43.355469 43.238281 C 43.636719 43.238281 43.90625 43.128906 44.101562 42.929688 C 44.121094 42.914062 44.128906 42.902344 44.144531 42.886719 L 46.050781 42.886719 L 46.050781 11.957031 L 47.996094 11.957031 L 47.996094 42.179688 C 47.996094 42.460938 48.109375 42.734375 48.304688 42.929688 C 48.5 43.128906 48.773438 43.238281 49.050781 43.238281 L 51.132812 43.238281 C 51.414062 43.238281 51.683594 43.128906 51.882812 42.929688 C 51.898438 42.914062 51.910156 42.902344 51.925781 42.886719 L 53.828125 42.886719 L 53.828125 11.957031 L 55.773438 11.957031 L 55.773438 42.179688 C 55.773438 42.460938 55.886719 42.734375 56.085938 42.929688 C 56.285156 43.128906 56.554688 43.238281 56.832031 43.238281 L 58.917969 43.238281 C 59.195312 43.238281 59.46875 43.128906 59.667969 42.929688 C 59.675781 42.914062 59.695312 42.902344 59.703125 42.886719 L 61.609375 42.886719 L 61.609375 11.957031 L 63.554688 11.957031 L 63.554688 42.179688 C 63.554688 42.460938 63.667969 42.734375 63.867188 42.929688 C 64.066406 43.128906 64.335938 43.238281 64.613281 43.238281 L 66.699219 43.238281 C 66.976562 43.238281 67.25 43.128906 67.445312 42.929688 C 67.460938 42.914062 67.472656 42.902344 67.484375 42.886719 L 69.390625 42.886719 L 69.390625 11.957031 L 71.339844 11.957031 L 71.339844 42.179688 C 71.339844 42.460938 71.449219 42.734375 71.644531 42.929688 C 71.84375 43.128906 72.117188 43.238281 72.394531 43.238281 L 74.476562 43.238281 C 74.753906 43.238281 75.027344 43.128906 75.226562 42.929688 C 75.242188 42.914062 75.25 42.902344 75.265625 42.886719 L 77.171875 42.886719 L 77.171875 11.957031 L 79.117188 11.957031 L 79.117188 42.179688 C 79.117188 42.460938 79.230469 42.734375 79.429688 42.929688 C 79.625 43.128906 79.898438 43.238281 80.175781 43.238281 L 82.257812 43.238281 C 82.535156 43.238281 82.808594 43.128906 83.003906 42.929688 C 83.019531 42.914062 83.03125 42.902344 83.046875 42.886719 L 84.875 42.886719 " fill-opacity="1" fill-rule="nonzero"/><path fill="#8c181c" d="M 14.929688 11.957031 L 14.929688 42.886719 L 13.023438 42.886719 C 13.195312 42.695312 13.289062 42.441406 13.289062 42.179688 L 12.84375 42.179688 L 13.289062 42.179688 L 13.289062 11.957031 L 14.929688 11.957031 " fill-opacity="1" fill-rule="nonzero"/><path fill="#8c181c" d="M 22.710938 11.957031 L 22.710938 42.886719 L 20.804688 42.886719 C 20.972656 42.695312 21.070312 42.441406 21.070312 42.179688 L 20.625 42.179688 L 21.070312 42.179688 L 21.070312 11.957031 L 22.710938 11.957031 " fill-opacity="1" fill-rule="nonzero"/><path fill="#8c181c" d="M 30.488281 11.957031 L 30.488281 42.886719 L 28.582031 42.886719 C 28.757812 42.695312 28.855469 42.441406 28.855469 42.179688 L 28.40625 42.179688 L 28.855469 42.179688 L 28.855469 11.957031 L 30.488281 11.957031 " fill-opacity="1" fill-rule="nonzero"/><path fill="#8c181c" d="M 38.265625 11.957031 L 38.265625 42.886719 L 36.363281 42.886719 C 36.535156 42.695312 36.632812 42.441406 36.632812 42.179688 L 36.183594 42.179688 L 36.632812 42.179688 L 36.632812 11.957031 L 38.265625 11.957031 " fill-opacity="1" fill-rule="nonzero"/><path fill="#8c181c" d="M 46.050781 11.957031 L 46.050781 42.886719 L 44.144531 42.886719 C 44.316406 42.695312 44.414062 42.441406 44.414062 42.179688 L 43.964844 42.179688 L 44.414062 42.179688 L 44.414062 11.957031 L 46.050781 11.957031 " fill-opacity="1" fill-rule="nonzero"/><path fill="#8c181c" d="M 53.828125 11.957031 L 53.828125 42.886719 L 51.925781 42.886719 C 52.09375 42.695312 52.191406 42.441406 52.191406 42.179688 L 51.746094 42.179688 L 52.191406 42.179688 L 52.191406 11.957031 L 53.828125 11.957031 " fill-opacity="1" fill-rule="nonzero"/><path fill="#8c181c" d="M 61.609375 11.957031 L 61.609375 42.886719 L 59.703125 42.886719 C 59.878906 42.695312 59.976562 42.441406 59.976562 42.179688 L 59.527344 42.179688 L 59.976562 42.179688 L 59.976562 11.957031 L 61.609375 11.957031 " fill-opacity="1" fill-rule="nonzero"/><path fill="#8c181c" d="M 69.390625 11.957031 L 69.390625 42.886719 L 67.484375 42.886719 C 67.660156 42.695312 67.753906 42.441406 67.753906 42.179688 L 67.308594 42.179688 L 67.753906 42.179688 L 67.753906 11.957031 L 69.390625 11.957031 " fill-opacity="1" fill-rule="nonzero"/><path fill="#8c181c" d="M 77.171875 11.957031 L 77.171875 42.886719 L 75.265625 42.886719 C 75.4375 42.695312 75.535156 42.441406 75.535156 42.179688 L 75.089844 42.179688 L 75.535156 42.179688 L 75.535156 11.957031 L 77.171875 11.957031 " fill-opacity="1" fill-rule="nonzero"/><path fill="#8c181c" d="M 84.875 11.957031 C 84.875 15.410156 84.875 27.058594 84.875 42.886719 L 83.046875 42.886719 C 83.21875 42.695312 83.316406 42.441406 83.316406 42.179688 L 82.871094 42.179688 L 83.316406 42.179688 L 83.316406 11.957031 L 84.875 11.957031 " fill-opacity="1" fill-rule="nonzero"/><path fill="#040606" d="M 86.992188 10.898438 C 86.992188 10.898438 86.992188 11.140625 86.992188 11.605469 L 86.007812 11.605469 C 86.007812 11.601562 86.007812 11.597656 86.007812 11.597656 C 86.007812 11.230469 85.148438 10.597656 83.574219 9.839844 L 85.933594 9.839844 C 86.214844 9.839844 86.484375 9.953125 86.683594 10.152344 C 86.878906 10.347656 86.992188 10.621094 86.992188 10.898438 M 86.726562 45.753906 C 86.710938 45.769531 86.699219 45.785156 86.683594 45.796875 C 86.488281 45.992188 86.214844 46.105469 85.933594 46.105469 L 85.074219 46.105469 C 85.089844 45.988281 85.109375 45.871094 85.128906 45.753906 L 86.726562 45.753906 M 11.667969 46.105469 L 5.585938 46.105469 C 5.304688 46.105469 5.03125 45.992188 4.835938 45.796875 C 4.640625 45.601562 4.523438 45.328125 4.523438 45.046875 C 4.523438 24.289062 4.523438 10.898438 4.523438 10.898438 C 4.523438 10.621094 4.640625 10.347656 4.835938 10.148438 C 5 9.984375 5.21875 9.878906 5.449219 9.847656 C 5.492188 9.84375 5.539062 9.839844 5.585938 9.839844 L 10.148438 9.839844 C 9.871094 9.839844 9.601562 9.953125 9.402344 10.148438 C 9.203125 10.347656 9.089844 10.621094 9.089844 10.898438 L 9.089844 11.101562 C 8.875 11.296875 8.761719 11.464844 8.761719 11.597656 C 8.761719 11.597656 8.761719 11.601562 8.761719 11.605469 L 8.277344 11.605469 C 8.277344 11.605469 8.277344 11.722656 8.277344 11.957031 L 6.640625 11.957031 C 6.640625 13.378906 6.640625 16.199219 6.640625 20.1875 C 6.640625 25.929688 6.640625 34.085938 6.640625 43.988281 L 8.277344 43.988281 C 8.277344 44.570312 8.277344 45.160156 8.277344 45.753906 L 11.644531 45.753906 C 11.652344 45.871094 11.660156 45.992188 11.667969 46.105469 " fill-opacity="1" fill-rule="nonzero"/><path fill="#040402" d="M 86.007812 11.597656 C 86.007812 11.597656 86.007812 11.601562 86.007812 11.605469 L 83.316406 11.605469 L 83.316406 10.898438 C 83.316406 10.621094 83.203125 10.347656 83.003906 10.152344 C 82.808594 9.953125 82.535156 9.839844 82.257812 9.839844 L 83.574219 9.839844 C 85.148438 10.597656 86.007812 11.230469 86.007812 11.597656 M 9.089844 11.101562 L 9.089844 11.605469 L 8.761719 11.605469 C 8.761719 11.601562 8.761719 11.597656 8.761719 11.597656 C 8.761719 11.464844 8.875 11.296875 9.089844 11.101562 " fill-opacity="1" fill-rule="nonzero"/><path fill="#030101" d="M 85.128906 45.753906 C 85.109375 45.871094 85.089844 45.988281 85.074219 46.105469 L 11.667969 46.105469 C 11.660156 45.992188 11.652344 45.871094 11.644531 45.753906 L 85.128906 45.753906 " fill-opacity="1" fill-rule="nonzero"/><path fill="#040101" d="M 86.992188 45.046875 C 86.992188 45.308594 86.894531 45.5625 86.726562 45.753906 L 8.277344 45.753906 C 8.277344 45.160156 8.277344 44.570312 8.277344 43.988281 L 84.875 43.988281 C 84.875 43.621094 84.875 43.253906 84.875 42.886719 L 84.953125 42.886719 L 84.953125 11.605469 L 86.992188 11.605469 C 86.992188 12.910156 86.992188 15.972656 86.992188 20.402344 C 86.992188 26.417969 86.992188 34.957031 86.992188 45.046875 M 9.089844 11.605469 L 9.089844 11.957031 L 8.277344 11.957031 C 8.277344 11.722656 8.277344 11.605469 8.277344 11.605469 L 9.089844 11.605469 " fill-opacity="1" fill-rule="nonzero"/><path fill="#030101" d="M 84.953125 11.605469 L 84.953125 42.886719 L 84.875 42.886719 C 84.875 27.058594 84.875 15.410156 84.875 11.957031 L 83.316406 11.957031 L 83.316406 11.605469 L 84.953125 11.605469 " fill-opacity="1" fill-rule="nonzero"/><path fill="#040402" d="M 80.175781 9.839844 C 79.898438 9.839844 79.625 9.953125 79.429688 10.148438 C 79.230469 10.347656 79.117188 10.621094 79.117188 10.898438 L 79.117188 11.605469 L 75.535156 11.605469 L 75.535156 10.898438 C 75.535156 10.621094 75.421875 10.347656 75.226562 10.152344 C 75.027344 9.953125 74.753906 9.839844 74.476562 9.839844 L 80.175781 9.839844 " fill-opacity="1" fill-rule="nonzero"/><path fill="#040101" d="M 79.117188 11.957031 L 79.117188 11.605469 L 77.171875 11.605469 L 77.171875 11.957031 Z M 79.117188 11.957031 " fill-opacity="1" fill-rule="nonzero"/><path fill="#030101" d="M 77.171875 11.957031 L 77.171875 11.605469 L 75.535156 11.605469 L 75.535156 11.957031 Z M 77.171875 11.957031 " fill-opacity="1" fill-rule="nonzero"/><path fill="#040402" d="M 72.394531 9.839844 C 72.117188 9.839844 71.84375 9.953125 71.648438 10.148438 C 71.449219 10.347656 71.339844 10.621094 71.339844 10.898438 L 71.339844 11.605469 L 67.753906 11.605469 L 67.753906 10.898438 C 67.753906 10.621094 67.640625 10.347656 67.445312 10.152344 C 67.25 9.953125 66.976562 9.839844 66.699219 9.839844 L 72.394531 9.839844 " fill-opacity="1" fill-rule="nonzero"/><path fill="#040101" d="M 71.339844 11.957031 L 71.339844 11.605469 L 69.390625 11.605469 L 69.390625 11.957031 Z M 71.339844 11.957031 " fill-opacity="1" fill-rule="nonzero"/><path fill="#030101" d="M 69.390625 11.957031 L 69.390625 11.605469 L 67.753906 11.605469 L 67.753906 11.957031 Z M 69.390625 11.957031 " fill-opacity="1" fill-rule="nonzero"/><path fill="#040402" d="M 64.613281 9.839844 C 64.335938 9.839844 64.066406 9.953125 63.867188 10.148438 C 63.667969 10.347656 63.554688 10.621094 63.554688 10.898438 L 63.554688 11.605469 L 59.976562 11.605469 L 59.976562 10.898438 C 59.976562 10.621094 59.863281 10.347656 59.667969 10.152344 C 59.46875 9.953125 59.195312 9.839844 58.917969 9.839844 L 64.613281 9.839844 " fill-opacity="1" fill-rule="nonzero"/><path fill="#040101" d="M 63.554688 11.957031 L 63.554688 11.605469 L 61.609375 11.605469 L 61.609375 11.957031 Z M 63.554688 11.957031 " fill-opacity="1" fill-rule="nonzero"/><path fill="#030101" d="M 61.609375 11.957031 L 61.609375 11.605469 L 59.976562 11.605469 L 59.976562 11.957031 Z M 61.609375 11.957031 " fill-opacity="1" fill-rule="nonzero"/><path fill="#040402" d="M 56.832031 9.839844 C 56.554688 9.839844 56.285156 9.953125 56.085938 10.148438 C 55.886719 10.347656 55.773438 10.621094 55.773438 10.898438 L 55.773438 11.605469 L 52.191406 11.605469 L 52.191406 10.898438 C 52.191406 10.621094 52.082031 10.347656 51.882812 10.152344 C 51.683594 9.953125 51.414062 9.839844 51.132812 9.839844 L 56.832031 9.839844 " fill-opacity="1" fill-rule="nonzero"/><path fill="#040101" d="M 55.773438 11.957031 L 55.773438 11.605469 L 53.828125 11.605469 L 53.828125 11.957031 Z M 55.773438 11.957031 " fill-opacity="1" fill-rule="nonzero"/><path fill="#030101" d="M 53.828125 11.957031 L 53.828125 11.605469 L 52.195312 11.605469 L 52.195312 11.957031 Z M 53.828125 11.957031 " fill-opacity="1" fill-rule="nonzero"/><path fill="#040402" d="M 49.050781 9.839844 C 48.773438 9.839844 48.5 9.953125 48.304688 10.148438 C 48.109375 10.347656 47.996094 10.621094 47.996094 10.898438 L 47.996094 11.605469 L 44.414062 11.605469 L 44.414062 10.898438 C 44.414062 10.621094 44.300781 10.347656 44.101562 10.152344 C 43.90625 9.953125 43.636719 9.839844 43.355469 9.839844 L 49.050781 9.839844 " fill-opacity="1" fill-rule="nonzero"/><path fill="#040101" d="M 47.996094 11.957031 L 47.996094 11.605469 L 46.050781 11.605469 L 46.050781 11.957031 Z M 47.996094 11.957031 " fill-opacity="1" fill-rule="nonzero"/><path fill="#030101" d="M 46.050781 11.957031 L 46.050781 11.605469 L 44.414062 11.605469 L 44.414062 11.957031 Z M 46.050781 11.957031 " fill-opacity="1" fill-rule="nonzero"/><path fill="#040402" d="M 41.273438 9.839844 C 40.992188 9.839844 40.722656 9.953125 40.527344 10.148438 C 40.328125 10.347656 40.214844 10.621094 40.214844 10.898438 L 40.214844 11.605469 L 36.632812 11.605469 L 36.632812 10.898438 C 36.632812 10.621094 36.519531 10.347656 36.324219 10.152344 C 36.128906 9.953125 35.851562 9.839844 35.578125 9.839844 L 41.273438 9.839844 " fill-opacity="1" fill-rule="nonzero"/><path fill="#040101" d="M 40.214844 11.957031 L 40.214844 11.605469 L 38.269531 11.605469 L 38.269531 11.957031 Z M 40.214844 11.957031 " fill-opacity="1" fill-rule="nonzero"/><path fill="#030101" d="M 38.265625 11.957031 L 38.265625 11.605469 L 36.632812 11.605469 L 36.632812 11.957031 Z M 38.265625 11.957031 " fill-opacity="1" fill-rule="nonzero"/><path fill="#040402" d="M 33.492188 9.839844 C 33.214844 9.839844 32.941406 9.953125 32.742188 10.148438 C 32.546875 10.347656 32.433594 10.621094 32.433594 10.898438 L 32.433594 11.605469 L 28.855469 11.605469 L 28.855469 10.898438 C 28.855469 10.621094 28.742188 10.347656 28.542969 10.152344 C 28.347656 9.953125 28.074219 9.839844 27.796875 9.839844 L 33.492188 9.839844 " fill-opacity="1" fill-rule="nonzero"/><path fill="#040101" d="M 32.433594 11.957031 L 32.433594 11.605469 L 30.488281 11.605469 L 30.488281 11.957031 Z M 32.433594 11.957031 " fill-opacity="1" fill-rule="nonzero"/><path fill="#030101" d="M 30.488281 11.957031 L 30.488281 11.605469 L 28.855469 11.605469 L 28.855469 11.957031 Z M 30.488281 11.957031 " fill-opacity="1" fill-rule="nonzero"/><path fill="#040402" d="M 25.710938 9.839844 C 25.433594 9.839844 25.160156 9.953125 24.964844 10.148438 C 24.765625 10.347656 24.652344 10.621094 24.652344 10.898438 L 24.652344 11.605469 L 21.070312 11.605469 L 21.070312 10.898438 C 21.070312 10.621094 20.957031 10.347656 20.761719 10.152344 C 20.5625 9.953125 20.292969 9.839844 20.011719 9.839844 L 25.710938 9.839844 " fill-opacity="1" fill-rule="nonzero"/><path fill="#040101" d="M 24.652344 11.957031 L 24.652344 11.605469 L 22.710938 11.605469 L 22.710938 11.957031 Z M 24.652344 11.957031 " fill-opacity="1" fill-rule="nonzero"/><path fill="#030101" d="M 22.710938 11.957031 L 22.710938 11.605469 L 21.070312 11.605469 L 21.070312 11.957031 Z M 22.710938 11.957031 " fill-opacity="1" fill-rule="nonzero"/><path fill="#040402" d="M 17.929688 9.839844 C 17.652344 9.839844 17.378906 9.953125 17.183594 10.148438 C 16.988281 10.347656 16.875 10.621094 16.875 10.898438 L 16.875 11.605469 L 13.289062 11.605469 L 13.289062 10.898438 C 13.289062 10.621094 13.175781 10.347656 12.980469 10.152344 C 12.785156 9.953125 12.515625 9.839844 12.234375 9.839844 L 17.929688 9.839844 " fill-opacity="1" fill-rule="nonzero"/><path fill="#040101" d="M 16.875 11.957031 L 16.875 11.605469 L 14.929688 11.605469 L 14.929688 11.957031 Z M 16.875 11.957031 " fill-opacity="1" fill-rule="nonzero"/><path fill="#030101" d="M 14.929688 11.957031 L 14.929688 11.605469 L 13.289062 11.605469 L 13.289062 11.957031 Z M 14.929688 11.957031 " fill-opacity="1" fill-rule="nonzero"/><path fill="#c8242b" d="M 49.910156 85.804688 C 46.558594 86.65625 43.964844 88.957031 43.207031 91.824219 C 42.691406 92.867188 42.402344 94.039062 42.402344 95.277344 L 42.402344 118.320312 C 42.402344 119.363281 42.609375 120.355469 42.980469 121.265625 L 42.980469 121.445312 C 42.980469 123.390625 43.808594 125.179688 45.195312 126.578125 C 44.699219 126.308594 44.242188 126 43.832031 125.660156 C 42.257812 124.351562 41.34375 122.625 41.34375 120.742188 L 41.34375 92.859375 C 41.34375 90.972656 42.257812 89.246094 43.832031 87.9375 C 45.363281 86.667969 47.511719 85.84375 49.910156 85.804688 " fill-opacity="1" fill-rule="nonzero"/><path fill="#1d191e" d="M 58.84375 92.859375 L 58.84375 93.242188 C 58.210938 91.808594 57.089844 90.640625 55.691406 89.953125 C 55.640625 89.898438 55.589844 89.84375 55.539062 89.792969 C 54.148438 88.386719 52.21875 87.511719 50.09375 87.515625 C 47.96875 87.511719 46.039062 88.386719 44.652344 89.792969 C 44.070312 90.382812 43.578125 91.066406 43.207031 91.824219 C 43.964844 88.957031 46.558594 86.65625 49.910156 85.804688 C 49.972656 85.804688 50.03125 85.804688 50.09375 85.804688 C 52.566406 85.800781 54.785156 86.636719 56.355469 87.9375 C 57.929688 89.246094 58.84375 90.972656 58.84375 92.859375 M 58.675781 122.109375 C 58.351562 123.457031 57.539062 124.675781 56.355469 125.660156 C 54.785156 126.960938 52.566406 127.792969 50.09375 127.792969 C 48.269531 127.792969 46.585938 127.339844 45.195312 126.578125 C 43.808594 125.179688 42.980469 123.390625 42.980469 121.445312 L 42.980469 121.265625 C 43.367188 122.222656 43.941406 123.085938 44.652344 123.804688 C 46.039062 125.210938 47.96875 126.082031 50.09375 126.082031 C 50.90625 126.082031 51.6875 125.957031 52.421875 125.71875 C 52.542969 125.722656 52.664062 125.730469 52.789062 125.730469 C 55.351562 125.730469 57.574219 124.261719 58.675781 122.109375 " fill-opacity="1" fill-rule="nonzero"/><path fill="#29242c" d="M 59.203125 120.742188 L 58.84375 120.742188 C 58.84375 121.210938 58.789062 121.667969 58.675781 122.109375 C 57.574219 124.261719 55.351562 125.730469 52.789062 125.730469 C 52.664062 125.730469 52.542969 125.722656 52.421875 125.71875 C 53.617188 125.339844 54.679688 124.671875 55.539062 123.804688 C 56.925781 122.402344 57.789062 120.457031 57.789062 118.320312 L 56.746094 118.320312 L 57.789062 118.320312 L 57.789062 95.277344 C 57.789062 95.277344 57.789062 95.273438 57.789062 95.273438 C 57.789062 93.222656 56.988281 91.339844 55.691406 89.953125 C 57.089844 90.640625 58.210938 91.808594 58.84375 93.242188 L 58.84375 120.742188 L 59.203125 120.742188 " fill-opacity="1" fill-rule="nonzero"/><path fill="#040101" d="M 58.332031 86.871094 C 56.753906 85.976562 54.847656 85.453125 52.789062 85.453125 C 51.785156 85.453125 50.824219 85.574219 49.910156 85.804688 C 47.511719 85.84375 45.363281 86.667969 43.832031 87.9375 C 42.257812 89.246094 41.34375 90.972656 41.34375 92.859375 L 41.34375 120.742188 C 41.34375 122.625 42.257812 124.351562 43.832031 125.660156 C 44.242188 126 44.699219 126.308594 45.195312 126.578125 C 46.992188 128.394531 49.726562 129.554688 52.789062 129.554688 C 52.898438 129.554688 53.003906 129.554688 53.113281 129.554688 C 52.152344 129.785156 51.140625 129.910156 50.09375 129.910156 C 47.148438 129.910156 44.464844 128.925781 42.488281 127.289062 C 40.507812 125.664062 39.226562 123.335938 39.226562 120.742188 L 39.226562 92.859375 C 39.226562 92.859375 39.226562 92.855469 39.226562 92.855469 C 39.226562 90.261719 40.507812 87.933594 42.488281 86.308594 C 44.464844 84.667969 47.148438 83.6875 50.09375 83.6875 C 53.039062 83.6875 55.726562 84.667969 57.703125 86.308594 C 57.921875 86.488281 58.132812 86.671875 58.332031 86.871094 " fill-opacity="1" fill-rule="nonzero"/><path fill="#010101" d="M 60.960938 92.855469 C 60.960938 92.855469 60.960938 92.859375 60.960938 92.859375 L 60.960938 120.742188 L 59.203125 120.742188 C 59.347656 120.191406 59.425781 119.617188 59.425781 119.027344 L 59.425781 95.984375 C 59.425781 95.007812 59.21875 94.078125 58.84375 93.242188 L 58.84375 92.859375 C 58.84375 90.972656 57.929688 89.246094 56.355469 87.9375 C 54.785156 86.636719 52.566406 85.800781 50.09375 85.804688 C 50.03125 85.804688 49.972656 85.804688 49.910156 85.804688 C 50.824219 85.574219 51.785156 85.453125 52.789062 85.453125 C 54.847656 85.453125 56.753906 85.976562 58.332031 86.871094 C 59.945312 88.453125 60.960938 90.546875 60.960938 92.855469 M 60.960938 120.742188 C 60.960938 123.335938 59.675781 125.664062 57.703125 127.289062 C 56.425781 128.347656 54.855469 129.128906 53.113281 129.554688 C 53.003906 129.554688 52.898438 129.554688 52.789062 129.554688 C 49.726562 129.554688 46.992188 128.394531 45.195312 126.578125 C 46.585938 127.339844 48.269531 127.792969 50.09375 127.792969 C 52.566406 127.792969 54.785156 126.960938 56.355469 125.660156 C 57.539062 124.675781 58.351562 123.457031 58.675781 122.109375 C 58.902344 121.679688 59.078125 121.21875 59.203125 120.742188 L 60.960938 120.742188 " fill-opacity="1" fill-rule="nonzero"/><path fill="#010201" d="M 59.425781 95.984375 L 59.425781 119.027344 C 59.425781 119.617188 59.347656 120.191406 59.203125 120.742188 L 58.84375 120.742188 L 58.84375 93.242188 C 59.21875 94.078125 59.425781 95.007812 59.425781 95.984375 M 59.203125 120.742188 C 59.078125 121.21875 58.902344 121.679688 58.675781 122.109375 C 58.789062 121.667969 58.84375 121.210938 58.84375 120.742188 L 59.203125 120.742188 " fill-opacity="1" fill-rule="nonzero"/><path fill="#1d191e" d="M 50.59375 89.652344 C 50.054688 89.84375 49.546875 90.101562 49.082031 90.421875 C 48.695312 90.523438 48.324219 90.683594 47.984375 90.886719 C 47.042969 91.449219 46.3125 92.339844 45.804688 93.398438 C 45.296875 94.457031 45.015625 95.703125 45.011719 97.035156 L 45.011719 116.5625 C 45.015625 118.335938 45.511719 119.957031 46.386719 121.195312 C 46.464844 121.304688 46.546875 121.414062 46.628906 121.515625 C 46.917969 122.242188 47.328125 122.90625 47.835938 123.484375 C 47.207031 123.199219 46.640625 122.800781 46.15625 122.316406 C 45.144531 121.292969 44.523438 119.886719 44.519531 118.320312 L 44.519531 95.277344 C 44.523438 93.710938 45.144531 92.304688 46.15625 91.28125 C 47.167969 90.257812 48.554688 89.632812 50.09375 89.632812 C 50.265625 89.632812 50.429688 89.636719 50.59375 89.652344 " fill-opacity="1" fill-rule="nonzero"/><path fill="#29242c" d="M 55.335938 93.335938 C 54.847656 92.777344 54.269531 92.375 53.640625 92.179688 C 53.234375 91.660156 52.753906 91.214844 52.203125 90.886719 C 51.578125 90.511719 50.851562 90.289062 50.09375 90.289062 C 49.746094 90.289062 49.40625 90.335938 49.082031 90.421875 C 49.546875 90.101562 50.054688 89.84375 50.59375 89.652344 C 51.9375 89.773438 53.132812 90.371094 54.035156 91.28125 C 54.605469 91.859375 55.054688 92.554688 55.335938 93.335938 M 53.359375 122.894531 C 52.441406 123.570312 51.316406 123.964844 50.09375 123.964844 C 49.289062 123.964844 48.523438 123.792969 47.835938 123.484375 C 47.328125 122.90625 46.917969 122.242188 46.628906 121.515625 C 47.015625 121.996094 47.472656 122.402344 47.984375 122.710938 C 48.609375 123.082031 49.332031 123.308594 50.085938 123.308594 C 50.085938 123.308594 50.089844 123.308594 50.09375 123.308594 C 50.097656 123.308594 50.101562 123.308594 50.105469 123.308594 C 50.769531 123.308594 51.40625 123.132812 51.972656 122.839844 C 52.238281 122.914062 52.507812 122.953125 52.789062 122.953125 C 52.980469 122.953125 53.171875 122.933594 53.359375 122.894531 " fill-opacity="1" fill-rule="nonzero"/><path fill="#544446" d="M 55.671875 95.277344 L 55.671875 107.710938 L 55.175781 107.710938 L 55.175781 97.035156 C 55.175781 95.261719 54.675781 93.636719 53.804688 92.402344 C 53.75 92.328125 53.695312 92.253906 53.640625 92.179688 C 54.269531 92.375 54.847656 92.777344 55.335938 93.335938 C 55.550781 93.941406 55.671875 94.59375 55.671875 95.277344 " fill-opacity="1" fill-rule="nonzero"/><path fill="#48393a" d="M 56.730469 118.320312 L 55.671875 118.320312 C 55.671875 119.886719 55.046875 121.292969 54.035156 122.316406 C 53.824219 122.527344 53.597656 122.722656 53.359375 122.894531 C 53.171875 122.933594 52.980469 122.953125 52.789062 122.953125 C 52.507812 122.953125 52.238281 122.914062 51.972656 122.839844 C 52.050781 122.796875 52.128906 122.753906 52.203125 122.710938 C 53.144531 122.144531 53.878906 121.257812 54.382812 120.199219 C 54.890625 119.140625 55.175781 117.894531 55.175781 116.5625 L 55.175781 107.710938 L 55.671875 107.710938 L 55.671875 118.320312 L 56.730469 118.320312 " fill-opacity="1" fill-rule="nonzero"/><path fill="#040101" d="M 43.207031 91.824219 C 43.058594 92.386719 42.980469 92.96875 42.980469 93.566406 L 42.980469 121.265625 C 42.609375 120.355469 42.402344 119.363281 42.402344 118.320312 L 42.402344 95.277344 C 42.402344 94.039062 42.691406 92.867188 43.207031 91.824219 " fill-opacity="1" fill-rule="nonzero"/><path fill="#010101" d="M 55.691406 89.953125 C 54.816406 89.519531 53.832031 89.277344 52.789062 89.277344 C 52.019531 89.277344 51.28125 89.410156 50.59375 89.652344 C 50.429688 89.636719 50.265625 89.632812 50.09375 89.632812 C 48.554688 89.632812 47.167969 90.257812 46.15625 91.28125 C 45.144531 92.304688 44.523438 93.710938 44.519531 95.277344 L 44.519531 118.320312 C 44.523438 119.886719 45.144531 121.292969 46.15625 122.316406 C 46.640625 122.800781 47.207031 123.199219 47.835938 123.484375 C 48.972656 124.777344 50.601562 125.621094 52.421875 125.71875 C 51.6875 125.957031 50.90625 126.082031 50.09375 126.082031 C 47.96875 126.082031 46.039062 125.210938 44.652344 123.804688 C 43.941406 123.085938 43.367188 122.222656 42.980469 121.265625 L 42.980469 93.566406 C 42.980469 92.96875 43.058594 92.386719 43.207031 91.824219 C 43.578125 91.066406 44.070312 90.382812 44.652344 89.792969 C 46.039062 88.386719 47.96875 87.511719 50.09375 87.515625 C 52.21875 87.511719 54.148438 88.386719 55.539062 89.792969 C 55.589844 89.84375 55.640625 89.898438 55.691406 89.953125 " fill-opacity="1" fill-rule="nonzero"/><path fill="#010201" d="M 57.789062 95.273438 C 57.789062 95.273438 57.789062 95.277344 57.789062 95.277344 L 57.789062 118.320312 L 56.746094 118.320312 C 56.789062 117.976562 56.8125 117.628906 56.8125 117.269531 L 56.8125 97.738281 C 56.8125 95.964844 56.234375 94.378906 55.335938 93.335938 C 55.054688 92.554688 54.605469 91.859375 54.035156 91.28125 C 53.132812 90.371094 51.9375 89.773438 50.59375 89.652344 C 51.28125 89.410156 52.019531 89.277344 52.789062 89.277344 C 53.832031 89.277344 54.816406 89.519531 55.691406 89.953125 C 56.988281 91.339844 57.789062 93.222656 57.789062 95.273438 M 57.789062 118.320312 C 57.789062 120.457031 56.925781 122.402344 55.539062 123.804688 C 54.679688 124.671875 53.617188 125.339844 52.421875 125.71875 C 50.601562 125.621094 48.972656 124.777344 47.835938 123.484375 C 48.523438 123.792969 49.289062 123.964844 50.09375 123.964844 C 51.316406 123.964844 52.441406 123.570312 53.359375 122.894531 C 55.066406 122.554688 56.429688 120.695312 56.746094 118.320312 L 57.789062 118.320312 " fill-opacity="1" fill-rule="nonzero"/><path fill="#020302" d="M 56.8125 97.738281 L 56.8125 107.710938 L 55.671875 107.710938 L 55.671875 95.277344 C 55.671875 94.59375 55.550781 93.941406 55.335938 93.335938 C 56.234375 94.378906 56.8125 95.964844 56.8125 97.738281 " fill-opacity="1" fill-rule="nonzero"/><path fill="#020302" d="M 56.8125 107.710938 L 56.8125 117.269531 C 56.8125 117.628906 56.789062 117.976562 56.746094 118.320312 L 55.671875 118.320312 L 55.671875 107.710938 L 56.8125 107.710938 M 56.746094 118.320312 C 56.429688 120.695312 55.066406 122.554688 53.359375 122.894531 C 53.597656 122.722656 53.824219 122.527344 54.035156 122.316406 C 55.046875 121.292969 55.671875 119.886719 55.671875 118.320312 L 56.746094 118.320312 " fill-opacity="1" fill-rule="nonzero"/><path fill="#29242c" d="M 51.003906 92.640625 C 49.675781 93.566406 48.765625 95.503906 48.765625 97.738281 L 48.765625 105.949219 L 47.128906 105.949219 L 47.128906 97.035156 C 47.128906 97.027344 47.128906 97.023438 47.128906 97.019531 C 47.128906 95.65625 47.527344 94.445312 48.113281 93.625 C 48.402344 93.210938 48.734375 92.902344 49.070312 92.703125 C 49.40625 92.503906 49.742188 92.40625 50.09375 92.40625 C 50.40625 92.40625 50.707031 92.480469 51.003906 92.640625 " fill-opacity="1" fill-rule="nonzero"/><path fill="#544446" d="M 53.058594 97.027344 C 53.058594 97.027344 53.058594 97.03125 53.058594 97.035156 L 53.058594 105.949219 L 48.765625 105.949219 L 48.765625 97.738281 C 48.765625 95.503906 49.675781 93.566406 51.003906 92.640625 C 51.042969 92.660156 51.082031 92.679688 51.117188 92.703125 C 51.621094 93 52.117188 93.554688 52.476562 94.3125 C 52.835938 95.066406 53.058594 96.003906 53.058594 97.027344 " fill-opacity="1" fill-rule="nonzero"/><path fill="#010101" d="M 49.082031 90.421875 C 47.316406 91.628906 46.15625 93.667969 46.15625 95.984375 L 46.15625 105.949219 L 46.070312 105.949219 C 45.792969 105.949219 45.519531 106.0625 45.324219 106.261719 C 45.125 106.457031 45.011719 106.726562 45.011719 107.007812 L 46.070312 107.007812 L 45.011719 107.007812 L 45.011719 116.5625 C 45.015625 118.335938 45.511719 119.957031 46.386719 121.195312 C 46.464844 121.304688 46.546875 121.414062 46.628906 121.515625 C 46.546875 121.414062 46.464844 121.304688 46.386719 121.195312 C 45.511719 119.957031 45.015625 118.335938 45.011719 116.5625 L 45.011719 97.035156 C 45.015625 95.703125 45.296875 94.457031 45.804688 93.398438 C 46.3125 92.339844 47.042969 91.449219 47.984375 90.886719 C 48.324219 90.683594 48.695312 90.523438 49.082031 90.421875 " fill-opacity="1" fill-rule="nonzero"/><path fill="#010201" d="M 53.640625 92.179688 C 53.363281 92.097656 53.082031 92.050781 52.789062 92.050781 C 52.148438 92.050781 51.542969 92.265625 51.003906 92.640625 C 50.707031 92.480469 50.40625 92.40625 50.09375 92.40625 C 49.742188 92.40625 49.40625 92.503906 49.070312 92.703125 C 48.734375 92.902344 48.402344 93.210938 48.113281 93.625 C 47.527344 94.445312 47.128906 95.65625 47.128906 97.019531 C 47.128906 97.023438 47.128906 97.027344 47.128906 97.035156 L 47.128906 105.949219 L 46.15625 105.949219 L 46.15625 95.984375 C 46.15625 93.667969 47.316406 91.628906 49.082031 90.421875 C 49.40625 90.335938 49.746094 90.289062 50.09375 90.289062 C 50.851562 90.289062 51.578125 90.511719 52.203125 90.886719 C 52.753906 91.214844 53.234375 91.660156 53.640625 92.179688 " fill-opacity="1" fill-rule="nonzero"/><path fill="#020302" d="M 55.175781 97.035156 L 55.175781 107.710938 L 55.175781 107.007812 C 55.175781 106.726562 55.0625 106.457031 54.867188 106.261719 C 54.667969 106.058594 54.402344 105.949219 54.117188 105.949219 L 53.058594 105.949219 L 53.058594 97.035156 C 53.058594 97.03125 53.058594 97.027344 53.058594 97.027344 C 53.058594 96.003906 52.835938 95.066406 52.476562 94.3125 C 52.117188 93.554688 51.621094 93 51.117188 92.703125 C 51.082031 92.679688 51.042969 92.660156 51.003906 92.640625 C 51.542969 92.265625 52.148438 92.050781 52.789062 92.050781 C 53.082031 92.050781 53.363281 92.097656 53.640625 92.179688 C 53.695312 92.253906 53.75 92.328125 53.804688 92.402344 C 54.675781 93.636719 55.175781 95.261719 55.175781 97.035156 " fill-opacity="1" fill-rule="nonzero"/><path fill="#29242c" d="M 49.863281 121.175781 C 49.59375 121.140625 49.332031 121.050781 49.070312 120.890625 C 48.566406 120.59375 48.070312 120.039062 47.710938 119.285156 C 47.351562 118.53125 47.128906 117.59375 47.128906 116.570312 C 47.128906 116.566406 47.128906 116.566406 47.128906 116.5625 L 47.128906 108.066406 L 48.765625 108.066406 L 48.765625 117.269531 C 48.765625 118.785156 49.179688 120.15625 49.863281 121.175781 " fill-opacity="1" fill-rule="nonzero"/><path fill="#48393a" d="M 53.058594 116.574219 C 53.0625 117.9375 52.660156 119.152344 52.074219 119.972656 C 51.785156 120.382812 51.453125 120.695312 51.117188 120.890625 C 50.78125 121.09375 50.445312 121.191406 50.09375 121.191406 C 50.015625 121.191406 49.941406 121.183594 49.863281 121.175781 C 49.179688 120.15625 48.765625 118.785156 48.765625 117.269531 L 48.765625 108.066406 L 53.058594 108.066406 L 53.058594 116.5625 C 53.058594 116.570312 53.058594 116.574219 53.058594 116.574219 " fill-opacity="1" fill-rule="nonzero"/><path fill="#010101" d="M 46.628906 121.515625 C 46.546875 121.414062 46.464844 121.304688 46.386719 121.195312 C 45.511719 119.957031 45.015625 118.335938 45.011719 116.5625 L 45.011719 107.007812 L 46.070312 107.007812 L 45.011719 107.007812 C 45.011719 106.726562 45.125 106.457031 45.324219 106.261719 C 45.519531 106.0625 45.792969 105.949219 46.070312 105.949219 L 46.15625 105.949219 L 46.15625 119.027344 C 46.15625 119.90625 46.324219 120.746094 46.628906 121.515625 " fill-opacity="1" fill-rule="nonzero"/><path fill="#010201" d="M 51.972656 122.839844 C 51.40625 123.132812 50.769531 123.308594 50.105469 123.308594 C 50.101562 123.308594 50.097656 123.308594 50.09375 123.308594 C 50.089844 123.308594 50.085938 123.308594 50.085938 123.308594 C 49.332031 123.308594 48.609375 123.082031 47.984375 122.710938 C 47.472656 122.402344 47.015625 121.996094 46.628906 121.515625 C 46.324219 120.746094 46.15625 119.90625 46.15625 119.027344 L 46.15625 105.949219 L 48.765625 105.949219 L 48.765625 108.066406 L 47.128906 108.066406 L 47.128906 116.5625 C 47.128906 116.566406 47.128906 116.566406 47.128906 116.570312 C 47.128906 117.59375 47.351562 118.53125 47.710938 119.285156 C 48.070312 120.039062 48.566406 120.59375 49.070312 120.890625 C 49.332031 121.050781 49.59375 121.140625 49.863281 121.175781 C 50.421875 122.007812 51.152344 122.597656 51.972656 122.839844 " fill-opacity="1" fill-rule="nonzero"/><path fill="#020302" d="M 55.175781 107.710938 L 48.765625 107.710938 L 48.765625 108.066406 L 48.765625 105.949219 L 54.117188 105.949219 C 54.402344 105.949219 54.667969 106.058594 54.867188 106.261719 C 55.0625 106.457031 55.175781 106.726562 55.175781 107.007812 L 55.175781 107.710938 " fill-opacity="1" fill-rule="nonzero"/><path fill="#020302" d="M 55.175781 116.5625 C 55.175781 117.894531 54.890625 119.140625 54.382812 120.199219 C 53.878906 121.257812 53.144531 122.144531 52.203125 122.710938 C 52.128906 122.753906 52.050781 122.796875 51.972656 122.839844 C 51.152344 122.597656 50.421875 122.007812 49.863281 121.175781 C 49.941406 121.183594 50.015625 121.191406 50.09375 121.191406 C 50.445312 121.191406 50.78125 121.09375 51.117188 120.890625 C 51.453125 120.695312 51.785156 120.382812 52.074219 119.972656 C 52.660156 119.152344 53.0625 117.9375 53.058594 116.574219 C 53.058594 116.574219 53.058594 116.570312 53.058594 116.5625 L 53.058594 108.066406 L 48.765625 108.066406 L 48.765625 107.710938 L 55.175781 107.710938 L 55.175781 116.5625 " fill-opacity="1" fill-rule="nonzero"/><path fill="#040606" d="M 11.195312 9.839844 C 10.191406 10.324219 9.476562 10.753906 9.089844 11.101562 L 9.089844 10.898438 C 9.089844 10.621094 9.203125 10.347656 9.402344 10.148438 C 9.601562 9.953125 9.871094 9.839844 10.148438 9.839844 L 11.195312 9.839844 " fill-opacity="1" fill-rule="nonzero"/><path fill="#040402" d="M 13.289062 10.898438 L 13.289062 11.605469 L 9.089844 11.605469 L 9.089844 11.101562 C 9.476562 10.753906 10.191406 10.324219 11.195312 9.839844 L 12.234375 9.839844 C 12.515625 9.839844 12.785156 9.953125 12.980469 10.152344 C 13.175781 10.347656 13.289062 10.621094 13.289062 10.898438 " fill-opacity="1" fill-rule="nonzero"/><path fill="#040101" d="M 13.023438 42.886719 C 13.007812 42.902344 12.996094 42.914062 12.980469 42.929688 C 12.785156 43.128906 12.515625 43.238281 12.234375 43.238281 L 10.148438 43.238281 C 9.871094 43.238281 9.601562 43.128906 9.402344 42.929688 C 9.203125 42.734375 9.089844 42.460938 9.089844 42.179688 L 9.089844 11.605469 L 12.84375 11.605469 L 12.84375 42.179688 L 12.234375 42.179688 L 12.234375 41.121094 L 12.234375 42.179688 L 12.84375 42.179688 L 12.84375 42.886719 L 13.023438 42.886719 " fill-opacity="1" fill-rule="nonzero"/><path fill="#030101" d="M 13.289062 11.605469 L 13.289062 42.179688 L 12.84375 42.179688 L 12.84375 11.605469 L 13.289062 11.605469 M 13.289062 42.179688 C 13.289062 42.441406 13.195312 42.695312 13.023438 42.886719 L 12.84375 42.886719 L 12.84375 42.179688 L 13.289062 42.179688 " fill-opacity="1" fill-rule="nonzero"/><path fill="#040402" d="M 21.070312 10.898438 L 21.070312 11.605469 L 16.875 11.605469 L 16.875 10.898438 C 16.875 10.621094 16.988281 10.347656 17.183594 10.148438 C 17.378906 9.953125 17.652344 9.839844 17.929688 9.839844 L 20.011719 9.839844 C 20.292969 9.839844 20.5625 9.953125 20.761719 10.152344 C 20.957031 10.347656 21.070312 10.621094 21.070312 10.898438 " fill-opacity="1" fill-rule="nonzero"/><path fill="#040101" d="M 20.804688 42.886719 C 20.789062 42.902344 20.777344 42.914062 20.761719 42.929688 C 20.566406 43.128906 20.292969 43.238281 20.011719 43.238281 L 17.929688 43.238281 C 17.652344 43.238281 17.378906 43.128906 17.183594 42.929688 C 16.988281 42.734375 16.875 42.460938 16.875 42.179688 L 16.875 11.605469 L 20.625 11.605469 L 20.625 42.179688 L 20.011719 42.179688 L 20.011719 41.121094 L 20.011719 42.179688 L 20.625 42.179688 L 20.625 42.886719 L 20.804688 42.886719 " fill-opacity="1" fill-rule="nonzero"/><path fill="#030101" d="M 21.070312 11.605469 L 21.070312 42.179688 L 20.625 42.179688 L 20.625 11.605469 L 21.070312 11.605469 M 21.070312 42.179688 C 21.070312 42.441406 20.972656 42.695312 20.804688 42.886719 L 20.625 42.886719 L 20.625 42.179688 L 21.070312 42.179688 " fill-opacity="1" fill-rule="nonzero"/><path fill="#040402" d="M 28.855469 10.898438 L 28.855469 11.605469 L 24.652344 11.605469 L 24.652344 10.898438 C 24.652344 10.621094 24.765625 10.347656 24.964844 10.148438 C 25.160156 9.953125 25.433594 9.839844 25.710938 9.839844 L 27.796875 9.839844 C 28.074219 9.839844 28.347656 9.953125 28.542969 10.152344 C 28.742188 10.347656 28.855469 10.621094 28.855469 10.898438 " fill-opacity="1" fill-rule="nonzero"/><path fill="#040101" d="M 28.582031 42.886719 C 28.570312 42.902344 28.558594 42.914062 28.542969 42.929688 C 28.347656 43.128906 28.074219 43.238281 27.796875 43.238281 L 25.710938 43.238281 C 25.433594 43.238281 25.160156 43.128906 24.964844 42.929688 C 24.765625 42.734375 24.652344 42.460938 24.652344 42.179688 L 24.652344 11.605469 L 28.40625 11.605469 L 28.40625 42.179688 L 27.796875 42.179688 L 27.796875 41.121094 L 27.796875 42.179688 L 28.40625 42.179688 L 28.40625 42.886719 L 28.582031 42.886719 " fill-opacity="1" fill-rule="nonzero"/><path fill="#030101" d="M 28.855469 11.605469 L 28.855469 42.179688 L 28.40625 42.179688 L 28.40625 11.605469 L 28.855469 11.605469 M 28.855469 42.179688 C 28.855469 42.441406 28.757812 42.695312 28.582031 42.886719 L 28.40625 42.886719 L 28.40625 42.179688 L 28.855469 42.179688 " fill-opacity="1" fill-rule="nonzero"/><path fill="#040402" d="M 36.632812 10.898438 L 36.632812 11.605469 L 32.433594 11.605469 L 32.433594 10.898438 C 32.433594 10.621094 32.546875 10.347656 32.742188 10.148438 C 32.941406 9.953125 33.214844 9.839844 33.492188 9.839844 L 35.578125 9.839844 C 35.851562 9.839844 36.128906 9.953125 36.324219 10.152344 C 36.519531 10.347656 36.632812 10.621094 36.632812 10.898438 " fill-opacity="1" fill-rule="nonzero"/><path fill="#040101" d="M 36.363281 42.886719 C 36.351562 42.902344 36.335938 42.914062 36.324219 42.929688 C 36.128906 43.128906 35.851562 43.238281 35.578125 43.238281 L 33.492188 43.238281 C 33.214844 43.238281 32.941406 43.128906 32.742188 42.929688 C 32.546875 42.734375 32.433594 42.460938 32.433594 42.179688 L 32.433594 11.605469 L 36.183594 11.605469 L 36.183594 42.179688 L 35.578125 42.179688 L 35.578125 41.121094 L 35.578125 42.179688 L 36.183594 42.179688 L 36.183594 42.886719 L 36.363281 42.886719 " fill-opacity="1" fill-rule="nonzero"/><path fill="#030101" d="M 36.632812 11.605469 L 36.632812 42.179688 L 36.183594 42.179688 L 36.183594 11.605469 L 36.632812 11.605469 M 36.632812 42.179688 C 36.632812 42.441406 36.535156 42.695312 36.363281 42.886719 L 36.183594 42.886719 L 36.183594 42.179688 L 36.632812 42.179688 " fill-opacity="1" fill-rule="nonzero"/><path fill="#040402" d="M 44.414062 10.898438 L 44.414062 11.605469 L 40.214844 11.605469 L 40.214844 10.898438 C 40.214844 10.621094 40.328125 10.347656 40.527344 10.148438 C 40.722656 9.953125 40.992188 9.839844 41.273438 9.839844 L 43.355469 9.839844 C 43.636719 9.839844 43.90625 9.953125 44.101562 10.152344 C 44.300781 10.347656 44.414062 10.621094 44.414062 10.898438 " fill-opacity="1" fill-rule="nonzero"/><path fill="#040101" d="M 44.144531 42.886719 C 44.128906 42.902344 44.121094 42.914062 44.101562 42.929688 C 43.90625 43.128906 43.636719 43.238281 43.355469 43.238281 L 41.273438 43.238281 C 40.992188 43.238281 40.722656 43.128906 40.527344 42.929688 C 40.328125 42.734375 40.214844 42.460938 40.214844 42.179688 L 40.214844 11.605469 L 43.964844 11.605469 L 43.964844 42.179688 L 43.355469 42.179688 L 43.355469 41.121094 L 43.355469 42.179688 L 43.964844 42.179688 L 43.964844 42.886719 L 44.144531 42.886719 " fill-opacity="1" fill-rule="nonzero"/><path fill="#030101" d="M 44.414062 11.605469 L 44.414062 42.179688 L 43.964844 42.179688 L 43.964844 11.605469 L 44.414062 11.605469 M 44.414062 42.179688 C 44.414062 42.441406 44.316406 42.695312 44.144531 42.886719 L 43.964844 42.886719 L 43.964844 42.179688 L 44.414062 42.179688 " fill-opacity="1" fill-rule="nonzero"/><path fill="#040402" d="M 52.191406 10.898438 L 52.191406 11.605469 L 47.996094 11.605469 L 47.996094 10.898438 C 47.996094 10.621094 48.109375 10.347656 48.304688 10.148438 C 48.5 9.953125 48.773438 9.839844 49.050781 9.839844 L 51.132812 9.839844 C 51.414062 9.839844 51.683594 9.953125 51.882812 10.152344 C 52.082031 10.347656 52.191406 10.621094 52.191406 10.898438 " fill-opacity="1" fill-rule="nonzero"/><path fill="#040101" d="M 51.925781 42.886719 C 51.910156 42.902344 51.898438 42.914062 51.882812 42.929688 C 51.683594 43.128906 51.414062 43.238281 51.132812 43.238281 L 49.050781 43.238281 C 48.773438 43.238281 48.5 43.128906 48.304688 42.929688 C 48.109375 42.734375 47.996094 42.460938 47.996094 42.179688 L 47.996094 11.605469 L 51.746094 11.605469 L 51.746094 42.179688 L 51.132812 42.179688 L 51.132812 41.121094 L 51.132812 42.179688 L 51.746094 42.179688 L 51.746094 42.886719 L 51.925781 42.886719 " fill-opacity="1" fill-rule="nonzero"/><path fill="#030101" d="M 52.191406 11.605469 L 52.191406 42.179688 L 51.746094 42.179688 L 51.746094 11.605469 L 52.191406 11.605469 M 52.191406 42.179688 C 52.191406 42.441406 52.09375 42.695312 51.925781 42.886719 L 51.746094 42.886719 L 51.746094 42.179688 L 52.191406 42.179688 " fill-opacity="1" fill-rule="nonzero"/><path fill="#040402" d="M 59.976562 10.898438 L 59.976562 11.605469 L 55.773438 11.605469 L 55.773438 10.898438 C 55.773438 10.621094 55.886719 10.347656 56.085938 10.148438 C 56.285156 9.953125 56.554688 9.839844 56.832031 9.839844 L 58.917969 9.839844 C 59.195312 9.839844 59.46875 9.953125 59.667969 10.152344 C 59.863281 10.347656 59.976562 10.621094 59.976562 10.898438 " fill-opacity="1" fill-rule="nonzero"/><path fill="#040101" d="M 59.703125 42.886719 C 59.695312 42.902344 59.675781 42.914062 59.667969 42.929688 C 59.46875 43.128906 59.195312 43.238281 58.917969 43.238281 L 56.832031 43.238281 C 56.554688 43.238281 56.285156 43.128906 56.085938 42.929688 C 55.886719 42.734375 55.773438 42.460938 55.773438 42.179688 L 55.773438 11.605469 L 59.527344 11.605469 L 59.527344 42.179688 L 58.917969 42.179688 L 58.917969 41.121094 L 58.917969 42.179688 L 59.527344 42.179688 L 59.527344 42.886719 L 59.703125 42.886719 " fill-opacity="1" fill-rule="nonzero"/><path fill="#030101" d="M 59.976562 11.605469 L 59.976562 42.179688 L 59.527344 42.179688 L 59.527344 11.605469 L 59.976562 11.605469 M 59.976562 42.179688 C 59.976562 42.441406 59.878906 42.695312 59.703125 42.886719 L 59.527344 42.886719 L 59.527344 42.179688 L 59.976562 42.179688 " fill-opacity="1" fill-rule="nonzero"/><path fill="#040402" d="M 67.753906 10.898438 L 67.753906 11.605469 L 63.554688 11.605469 L 63.554688 10.898438 C 63.554688 10.621094 63.667969 10.347656 63.867188 10.148438 C 64.066406 9.953125 64.335938 9.839844 64.613281 9.839844 L 66.699219 9.839844 C 66.976562 9.839844 67.25 9.953125 67.445312 10.152344 C 67.640625 10.347656 67.753906 10.621094 67.753906 10.898438 " fill-opacity="1" fill-rule="nonzero"/><path fill="#040101" d="M 67.484375 42.886719 C 67.472656 42.902344 67.460938 42.914062 67.445312 42.929688 C 67.25 43.128906 66.976562 43.238281 66.699219 43.238281 L 64.613281 43.238281 C 64.335938 43.238281 64.066406 43.128906 63.867188 42.929688 C 63.667969 42.734375 63.554688 42.460938 63.554688 42.179688 L 63.554688 11.605469 L 67.308594 11.605469 L 67.308594 42.179688 L 66.699219 42.179688 L 66.699219 41.121094 L 66.699219 42.179688 L 67.308594 42.179688 L 67.308594 42.886719 L 67.484375 42.886719 " fill-opacity="1" fill-rule="nonzero"/><path fill="#030101" d="M 67.753906 11.605469 L 67.753906 42.179688 L 67.308594 42.179688 L 67.308594 11.605469 L 67.753906 11.605469 M 67.753906 42.179688 C 67.753906 42.441406 67.660156 42.695312 67.484375 42.886719 L 67.308594 42.886719 L 67.308594 42.179688 L 67.753906 42.179688 " fill-opacity="1" fill-rule="nonzero"/><path fill="#040402" d="M 75.535156 10.898438 L 75.535156 11.605469 L 71.339844 11.605469 L 71.339844 10.898438 C 71.339844 10.621094 71.449219 10.347656 71.648438 10.148438 C 71.84375 9.953125 72.117188 9.839844 72.394531 9.839844 L 74.476562 9.839844 C 74.753906 9.839844 75.027344 9.953125 75.226562 10.152344 C 75.421875 10.347656 75.535156 10.621094 75.535156 10.898438 " fill-opacity="1" fill-rule="nonzero"/><path fill="#040101" d="M 75.265625 42.886719 C 75.25 42.902344 75.242188 42.914062 75.226562 42.929688 C 75.027344 43.128906 74.753906 43.238281 74.476562 43.238281 L 72.394531 43.238281 C 72.117188 43.238281 71.84375 43.128906 71.644531 42.929688 C 71.449219 42.734375 71.339844 42.460938 71.339844 42.179688 L 71.339844 11.605469 L 75.089844 11.605469 L 75.089844 42.179688 L 74.476562 42.179688 L 74.476562 41.121094 L 74.476562 42.179688 L 75.089844 42.179688 L 75.089844 42.886719 L 75.265625 42.886719 " fill-opacity="1" fill-rule="nonzero"/><path fill="#030101" d="M 75.535156 11.605469 L 75.535156 42.179688 L 75.089844 42.179688 L 75.089844 11.605469 L 75.535156 11.605469 M 75.535156 42.179688 C 75.535156 42.441406 75.4375 42.695312 75.265625 42.886719 L 75.089844 42.886719 L 75.089844 42.179688 L 75.535156 42.179688 " fill-opacity="1" fill-rule="nonzero"/><path fill="#030101" d="M 83.316406 42.179688 C 83.316406 42.441406 83.21875 42.695312 83.046875 42.886719 L 82.871094 42.886719 L 82.871094 42.179688 L 83.316406 42.179688 " fill-opacity="1" fill-rule="nonzero"/><path fill="#040402" d="M 83.316406 10.898438 L 83.316406 11.605469 L 79.117188 11.605469 L 79.117188 10.898438 C 79.117188 10.621094 79.230469 10.347656 79.429688 10.148438 C 79.625 9.953125 79.898438 9.839844 80.175781 9.839844 L 82.257812 9.839844 C 82.535156 9.839844 82.808594 9.953125 83.003906 10.152344 C 83.203125 10.347656 83.316406 10.621094 83.316406 10.898438 " fill-opacity="1" fill-rule="nonzero"/><path fill="#040101" d="M 83.046875 42.886719 C 83.03125 42.902344 83.019531 42.914062 83.003906 42.929688 C 82.808594 43.128906 82.535156 43.238281 82.257812 43.238281 L 80.175781 43.238281 C 79.898438 43.238281 79.625 43.128906 79.429688 42.929688 C 79.230469 42.734375 79.117188 42.460938 79.117188 42.179688 L 79.117188 11.605469 L 82.871094 11.605469 L 82.871094 42.179688 L 82.257812 42.179688 L 82.257812 41.121094 L 82.257812 42.179688 L 82.871094 42.179688 L 82.871094 42.886719 L 83.046875 42.886719 " fill-opacity="1" fill-rule="nonzero"/><path fill="#030101" d="M 83.316406 11.605469 L 83.316406 42.179688 L 82.871094 42.179688 L 82.871094 11.605469 L 83.316406 11.605469 " fill-opacity="1" fill-rule="nonzero"/></svg>